# xmcd
# 
# Track frame offsets:
#     150
#     21036
#     39856
#     46846
# 
# Disc length: 899
# 
# Revision: 0
# Processed by: cddbd v1.5.2PL0 Copyright (c) Steve Scherf et al.
# Submitted via: fre:ac v1.0.17
# 
DISCID=21038104
DTITLE=早見沙織 - Jewelry
DYEAR=2018
DGENRE=
TTITLE0=Jewelry
TTITLE1=琥珀糖
TTITLE2=Jewelry (TV EDIT)
TTITLE3=Jewelry (Instrumental)
EXTD=
EXTT0=
EXTT1=
EXTT2=
EXTT3=
PLAYORDER=
